<svg xmlns="http://www.w3.org/2000/svg" height="48" viewBox="0 96 960 960" width="48"><path d="M692.5 785q25.848 0 44.174-18.768Q755 747.463 755 721.912q0-25.552-19.029-43.732-19.03-18.18-43.5-18.18Q666 660 647.5 678.006 629 696.012 629 721.735t18.826 44.494Q666.652 785 692.5 785Zm-.544 125q33.044 0 59.426-13 26.383-13 46.618-40-27-12-53.488-20.5-26.487-8.5-52.974-8.5-26.837 0-54.187 8.5Q610 845 586 857q18 27 44.769 40 26.77 13 61.187 13Zm-210.913 88q-147.812-35.81-244.927-167.05Q139 699.711 139 533.736V280.957L481 153l342 128v300q-24-13-46.221-23.094Q754.557 547.812 731 546V343.139L481 251l-251 91.694v190.451Q230 613 255 674.5 280 736 318 782t81.5 76q43.5 30 80.5 40 7 24 25 46.5t39 33.5q-15.667 8-32 12t-30.957 8Zm211.552-26q-76.215 0-130.405-54.388T508 788.802q0-76.857 54.085-131.329Q616.169 603 692.905 603q75.715 0 130.405 54.338T878 788.534q0 74.422-54.595 128.944Q768.811 972 692.595 972ZM480 575Z"/></svg>