<svg xmlns="http://www.w3.org/2000/svg" height="48" viewBox="0 96 960 960" width="48"><path d="M219.124 933Q175 933 145.5 903.624q-29.5-29.376-29.5-74.5Q116 785 145.376 755.5q29.376-29.5 73.5-29.5Q263 726 293 755.376q30 29.376 30 73.5Q323 874 293.124 903.5q-29.876 29.5-74 29.5ZM697 933q0-119-46.5-224.5t-125-185Q447 444 341.591 398.5 236.182 353 116 353V244q142 0 267.5 54.5t218.5 148Q695 540 749.5 666T804 933H697Zm-241 0q0-152-93.669-250.5Q268.663 584 116 584V477q97.164 0 179.436 34.686 82.273 34.687 141.732 96.646t93.146 145.232Q564 836.836 564 933H456Z"/></svg>