<svg xmlns="http://www.w3.org/2000/svg" height="48" viewBox="0 96 960 960" width="48"><path d="M480.091 957q-73.091 0-135.21-35.133Q282.762 886.733 254 820H138v-69h92q-6-23.75-6.5-48t-.5-49h-86v-69h85.988q0-26 1.131-52.5T232 481h-94v-69h123q13-32 35.5-54.5T349 321l-78-76 48-47 94 93q30.837-13 64.419-14Q511 276 544 289l95-95 47 47-74 74q32 17 55.637 42.952Q691.275 383.905 706 418h118v63h-96q8.5 24.667 8.75 51.333Q737 559 737 585h87v69h-86.988q0 24.667-.006 48.667T730 751h94v68.882H708q-30 66.851-92.44 101.985Q553.12 957 480.091 957ZM480 866q72 0 118.5-50.013T645 694.658V545.816q0-72.76-46.5-123.788Q552 371 480 371t-118.5 50.995Q315 472.989 315 545.684v148.684q0 71.869 46.5 121.751Q408 866 480 866Zm-79-126h158v-69H401v69Zm0-172h158v-69H401v69Zm79 50h.5-.5.5-.5.5-.5.5-.5Z"/></svg>