<svg xmlns="http://www.w3.org/2000/svg" height="48" viewBox="0 96 960 960" width="48"><path d="M479.956 563q-76.826 0-124.391-48.065Q308 466.87 308 390.704q0-76.167 47.406-123.935Q402.812 219 479.637 219q76.826 0 125.094 47.656Q653 314.312 653 391.204q0 75.666-48.109 123.731Q556.781 563 479.956 563ZM138 926V810.205q0-43.979 22.828-76.61T220 684q68-32 131.72-47 63.721-15 127.772-15 65.97 0 128.739 16 62.769 16 130.69 46.194 37.911 15.778 60.995 48.556Q823 765.528 823 809.945V926H138Zm91-91h502v-21q0-15.353-9.7-30.063Q711.6 769.228 697 763q-60-29-109.995-39-49.996-10-108-10Q423 714 372 724.5q-51 10.5-108.571 38.344-15.679 6.584-25.054 20.976Q229 798.212 229 814v21Zm250.796-363Q514 472 537.5 448.654t23.5-57.619q0-34.685-23.296-58.36Q514.407 309 480.204 309 446 309 422.5 332.721T399 390.54q0 34.51 23.296 57.985Q445.593 472 479.796 472Zm.204-81Zm0 444Z"/></svg>