<svg xmlns="http://www.w3.org/2000/svg" height="48" viewBox="0 96 960 960" width="48"><path d="M581 980q-27.462 27-65.731 27Q477 1007 450 980L76 606q-15.167-14.914-20.583-31.569Q50 557.776 50 540V237q0-38.4 26.3-65.2Q102.6 145 141 145h303q18.84 0 35.902 6.062Q496.964 157.125 512 172l372 371q28 28 27.5 67.5T884 677L581 980Zm-62-63 304-303-378.448-377H141v303.744L519 917ZM245.471 391q20.887 0 35.708-15.174Q296 360.652 296 340.118q0-20.535-15.071-35.326Q265.858 290 245.471 290q-20.888 0-35.679 14.985Q195 319.971 195 340.235q0 20.682 14.792 35.723Q224.583 391 245.471 391ZM141 237Z"/></svg>