<svg xmlns="http://www.w3.org/2000/svg" height="48" viewBox="0 96 960 960" width="48"><path d="M400.296 559q-76.166 0-124.231-48.065T228 386.704q0-76.167 48.065-123.935Q324.13 215 400.296 215t124.935 47.656Q574 310.312 574 387.204q0 75.666-48.769 123.731T400.296 559ZM59 922V804.986q0-43.986 24.563-76.87Q108.124 695.233 140 680q70-32 136-47t124.529-15q5.471 0 18.471.5t20-.5q-8 15-17.5 42t-9.5 50h-9.587Q349 710 294.166 720.968q-54.835 10.967-111.048 37.652-16.403 8.565-24.76 21.783Q150 793.621 150 809v22h258q3.846 25.935 19.423 51.468Q443 908 457 922H59Zm619.565 31L669 885q-16-3-31.5-12T611 852l-58 14-32-56 49-46q-4-5.842-3.5-20.421T570 723l-49-47 32-55 58 13q11-10 26.409-18.844Q652.818 606.312 669 602l9.565-69H748l11 69q15 4 30.484 13.357Q804.969 624.714 816 634l57-13 34 55-51 47q6 6.842 5 20.921T856 764l51 46-34 56-57-14q-11 12-26.5 20.5T759 885l-11 68h-69.435Zm35.143-136q33.197 0 53.244-20.292Q787 776.416 787 743.208T766.748 689.5q-20.252-20.5-53.5-20.5Q680 669 660 689.756q-20 20.755-20 53.288 0 33.708 20.256 53.832Q680.511 817 713.708 817ZM400.796 468Q435 468 458.5 444.654t23.5-57.619q0-34.685-23.296-58.36-23.297-23.675-58-23.675Q366 305 342.5 328.721T319 386.54q0 34.51 23.178 57.985Q365.355 468 400.796 468Zm.204-81Zm7 444Z"/></svg>